<svg xmlns="http://www.w3.org/2000/svg" xmlns:xlink="http://www.w3.org/1999/xlink" width="500" zoomAndPan="magnify" viewBox="0 0 375 374.999991" height="500" preserveAspectRatio="xMidYMid meet" version="1.0"><defs><clipPath id="61a4bc5886"><path d="M 96 62 L 324 62 L 324 228 L 96 228 Z M 96 62 " clip-rule="nonzero"/></clipPath><clipPath id="bc23a96762"><path d="M 117.675781 50.839844 L 334.855469 187.644531 L 302.183594 239.507812 L 85.007812 102.703125 Z M 117.675781 50.839844 " clip-rule="nonzero"/></clipPath><clipPath id="00fc30cd81"><path d="M 143.609375 67.175781 L 308.894531 171.289062 C 323.21875 180.3125 327.511719 199.234375 318.492188 213.558594 C 309.472656 227.878906 290.546875 232.175781 276.226562 223.152344 L 110.9375 119.039062 C 96.617188 110.015625 92.320312 91.09375 101.34375 76.773438 C 110.363281 62.449219 129.285156 58.152344 143.609375 67.175781 Z M 143.609375 67.175781 " clip-rule="nonzero"/></clipPath><clipPath id="c565268f7d"><path d="M 0 0 L 228 0 L 228 166 L 0 166 Z M 0 0 " clip-rule="nonzero"/></clipPath><clipPath id="f83b26ea09"><path d="M 21.675781 -11.160156 L 238.855469 125.644531 L 206.183594 177.507812 L -10.992188 40.703125 Z M 21.675781 -11.160156 " clip-rule="nonzero"/></clipPath><clipPath id="cb6427e5ad"><path d="M 47.609375 5.175781 L 212.894531 109.289062 C 227.21875 118.3125 231.511719 137.234375 222.492188 151.558594 C 213.472656 165.878906 194.546875 170.175781 180.226562 161.152344 L 14.9375 57.039062 C 0.617188 48.015625 -3.679688 29.09375 5.34375 14.773438 C 14.363281 0.449219 33.285156 -3.847656 47.609375 5.175781 Z M 47.609375 5.175781 " clip-rule="nonzero"/></clipPath><clipPath id="09caa2213c"><rect x="0" width="228" y="0" height="166"/></clipPath><clipPath id="f1fc0168de"><path d="M 95 165 L 327 165 L 327 317 L 95 317 Z M 95 165 " clip-rule="nonzero"/></clipPath><clipPath id="11e5024021"><path d="M 85.011719 273.101562 L 308.992188 154.765625 L 337.625 208.964844 L 113.644531 327.296875 Z M 85.011719 273.101562 " clip-rule="nonzero"/></clipPath><clipPath id="e9720de3df"><path d="M 112.109375 258.785156 L 281.769531 169.148438 C 296.734375 161.242188 315.277344 166.964844 323.183594 181.933594 C 331.089844 196.898438 325.367188 215.441406 310.402344 223.347656 L 140.742188 312.980469 C 125.773438 320.886719 107.234375 315.164062 99.328125 300.199219 C 91.417969 285.234375 97.140625 266.691406 112.109375 258.785156 Z M 112.109375 258.785156 " clip-rule="nonzero"/></clipPath><clipPath id="ba091e4c5e"><path d="M 0 0 L 232 0 L 232 152 L 0 152 Z M 0 0 " clip-rule="nonzero"/></clipPath><clipPath id="3213bf9f72"><path d="M -9.988281 108.101562 L 213.992188 -10.234375 L 242.625 43.964844 L 18.644531 162.296875 Z M -9.988281 108.101562 " clip-rule="nonzero"/></clipPath><clipPath id="1a20918db9"><path d="M 17.109375 93.785156 L 186.769531 4.148438 C 201.734375 -3.757812 220.277344 1.964844 228.183594 16.933594 C 236.089844 31.898438 230.367188 50.441406 215.402344 58.347656 L 45.742188 147.980469 C 30.773438 155.886719 12.234375 150.164062 4.328125 135.199219 C -3.582031 120.234375 2.140625 101.691406 17.109375 93.785156 Z M 17.109375 93.785156 " clip-rule="nonzero"/></clipPath><clipPath id="61008f8807"><rect x="0" width="232" y="0" height="152"/></clipPath><clipPath id="1f8888bf5f"><path d="M 90.984375 61.589844 L 152.277344 61.589844 L 152.277344 316.828125 L 90.984375 316.828125 Z M 90.984375 61.589844 " clip-rule="nonzero"/></clipPath><clipPath id="8fc6f8278c"><path d="M 90.984375 286.179688 L 90.984375 92.292969 C 90.984375 75.367188 104.707031 61.644531 121.632812 61.644531 C 138.558594 61.644531 152.277344 75.367188 152.277344 92.292969 L 152.277344 286.179688 C 152.277344 303.105469 138.558594 316.828125 121.632812 316.828125 C 104.707031 316.828125 90.984375 303.105469 90.984375 286.179688 Z M 90.984375 286.179688 " clip-rule="nonzero"/></clipPath><clipPath id="e60bd919cd"><path d="M 0.984375 0.589844 L 62.277344 0.589844 L 62.277344 255.828125 L 0.984375 255.828125 Z M 0.984375 0.589844 " clip-rule="nonzero"/></clipPath><clipPath id="44025a9c80"><path d="M 0.984375 225.179688 L 0.984375 31.292969 C 0.984375 14.367188 14.707031 0.644531 31.632812 0.644531 C 48.558594 0.644531 62.277344 14.367188 62.277344 31.292969 L 62.277344 225.179688 C 62.277344 242.105469 48.558594 255.828125 31.632812 255.828125 C 14.707031 255.828125 0.984375 242.105469 0.984375 225.179688 Z M 0.984375 225.179688 " clip-rule="nonzero"/></clipPath><clipPath id="c5c0a86ecb"><rect x="0" width="63" y="0" height="256"/></clipPath><clipPath id="891d6b3fe7"><path d="M 91 59 L 214 59 L 214 159 L 91 159 Z M 91 59 " clip-rule="nonzero"/></clipPath><clipPath id="f9f87f1fdb"><path d="M 112.371094 47.699219 L 225.011719 118.652344 L 192.34375 170.515625 L 79.703125 99.5625 Z M 112.371094 47.699219 " clip-rule="nonzero"/></clipPath><clipPath id="c1c44aa809"><path d="M 138.304688 64.035156 L 198.921875 102.21875 C 213.246094 111.242188 217.539062 130.164062 208.519531 144.484375 C 199.5 158.808594 180.574219 163.105469 166.253906 154.082031 L 105.632812 115.898438 C 91.3125 106.875 87.015625 87.953125 96.035156 73.632812 C 105.058594 59.308594 123.980469 55.011719 138.304688 64.035156 Z M 138.304688 64.035156 " clip-rule="nonzero"/></clipPath><clipPath id="61173d1fb7"><path d="M 0 0 L 123 0 L 123 100 L 0 100 Z M 0 0 " clip-rule="nonzero"/></clipPath><clipPath id="e33b465644"><path d="M 21.371094 -11.300781 L 134.011719 59.652344 L 101.34375 111.515625 L -11.296875 40.5625 Z M 21.371094 -11.300781 " clip-rule="nonzero"/></clipPath><clipPath id="de224d2a99"><path d="M 47.304688 5.035156 L 107.921875 43.21875 C 122.246094 52.242188 126.539062 71.164062 117.519531 85.484375 C 108.5 99.808594 89.574219 104.105469 75.253906 95.082031 L 14.632812 56.898438 C 0.3125 47.875 -3.984375 28.953125 5.035156 14.632812 C 14.058594 0.308594 32.980469 -3.988281 47.304688 5.035156 Z M 47.304688 5.035156 " clip-rule="nonzero"/></clipPath><clipPath id="aad9addb27"><rect x="0" width="123" y="0" height="100"/></clipPath></defs><g clip-path="url(#61a4bc5886)"><g clip-path="url(#bc23a96762)"><g clip-path="url(#00fc30cd81)"><g transform="matrix(1, 0, 0, 1, 96, 62)"><g clip-path="url(#09caa2213c)"><g clip-path="url(#c565268f7d)"><g clip-path="url(#f83b26ea09)"><g clip-path="url(#cb6427e5ad)"><path fill="#ff1700" d="M 21.675781 -11.160156 L 238.855469 125.644531 L 206.183594 177.507812 L -10.992188 40.703125 Z M 21.675781 -11.160156 " fill-opacity="1" fill-rule="nonzero"/></g></g></g></g></g></g></g></g><g clip-path="url(#f1fc0168de)"><g clip-path="url(#11e5024021)"><g clip-path="url(#e9720de3df)"><g transform="matrix(1, 0, 0, 1, 95, 165)"><g clip-path="url(#61008f8807)"><g clip-path="url(#ba091e4c5e)"><g clip-path="url(#3213bf9f72)"><g clip-path="url(#1a20918db9)"><path fill="#59ff00" d="M -9.988281 108.101562 L 213.78125 -10.121094 L 242.414062 44.074219 L 18.644531 162.296875 Z M -9.988281 108.101562 " fill-opacity="1" fill-rule="nonzero"/></g></g></g></g></g></g></g></g><g clip-path="url(#1f8888bf5f)"><g clip-path="url(#8fc6f8278c)"><g transform="matrix(1, 0, 0, 1, 90, 61)"><g clip-path="url(#c5c0a86ecb)"><g clip-path="url(#e60bd919cd)"><g clip-path="url(#44025a9c80)"><path fill="#0094ff" d="M 0.984375 255.828125 L 0.984375 0.589844 L 62.277344 0.589844 L 62.277344 255.828125 Z M 0.984375 255.828125 " fill-opacity="1" fill-rule="nonzero"/></g></g></g></g></g></g><g clip-path="url(#891d6b3fe7)"><g clip-path="url(#f9f87f1fdb)"><g clip-path="url(#c1c44aa809)"><g transform="matrix(1, 0, 0, 1, 91, 59)"><g clip-path="url(#aad9addb27)"><g clip-path="url(#61173d1fb7)"><g clip-path="url(#e33b465644)"><g clip-path="url(#de224d2a99)"><path fill="#ff1700" d="M 21.371094 -11.300781 L 133.808594 59.527344 L 101.140625 111.390625 L -11.296875 40.5625 Z M 21.371094 -11.300781 " fill-opacity="1" fill-rule="nonzero"/></g></g></g></g></g></g></g></g></svg>